<?xml version="1.0" encoding="UTF-8" standalone="no" ?>
<!DOCTYPE svg PUBLIC "-//W3C//DTD SVG 1.1//EN" "http://www.w3.org/Graphics/SVG/1.1/DTD/svg11.dtd">
<svg xmlns="http://www.w3.org/2000/svg" xmlns:xlink="http://www.w3.org/1999/xlink" version="1.1" width="1280" height="1024" viewBox="0 0 1280 1024" xml:space="preserve">
<desc>Created with Fabric.js 3.1.0</desc>
<defs>
</defs>
<g transform="matrix(1 0 0 1 640 512)" id="background-logo"  >
<rect style="stroke: none; stroke-width: 1; stroke-dasharray: none; stroke-linecap: butt; stroke-dashoffset: 0; stroke-linejoin: miter; stroke-miterlimit: 4; fill: rgb(255,255,255); fill-rule: nonzero; opacity: 1;"  paint-order="stroke"  x="-640" y="-512" rx="0" ry="0" width="1280" height="1024" />
</g>
<g transform="matrix(1.965451055662188 0 0 1.965451055662188 640 395.1940906776659)" style="" id="logo-logo"  >
	<g transform="matrix(0.8824336526153292 0 0 -0.8824336526153294 0.00006307248196435467 0.0003939018158973795)"  >
<path style="stroke: none; stroke-width: 1; stroke-dasharray: none; stroke-linecap: butt; stroke-dashoffset: 0; stroke-linejoin: miter; stroke-miterlimit: 4; fill: rgb(247,147,32); fill-rule: nonzero; opacity: 1;"  paint-order="stroke"  transform=" translate(32.50499999999998, -46.96349999999999)" d="m 0 0 c -3.289 -4.181 -7.28 -6.933 -11.972 -8.26 c -0.334 -0.094 -0.688 -0.178 -1.035 -0.265 c -4.52 -1.144 -10.081 -1.724 -16.711 -1.724 h -7.695 h -4.578 c -4.092 0 -6.597 0.221 -7.52 0.663 c -0.924 0.441 -1.585 1.225 -1.987 2.352 c -0.319 0.882 -0.521 3.897 -0.6 9.043 v 36.413 h 14.685 h 7.094 c 7.14 0 12.91 -0.495 17.312 -1.486 c 1.483 -0.333 2.811 -0.721 3.983 -1.167 c 4.653 -1.768 8.142 -4.382 10.469 -7.837 C 3.77 24.275 4.934 20.055 4.934 15.072 C 4.934 9.203 3.289 4.179 0 0 m -37.413 103.936 h 3.763 c 9.382 0 16.262 -0.504 20.643 -1.511 c 0.649 -0.149 1.244 -0.308 1.783 -0.479 c 4.18 -1.326 7.374 -3.557 9.586 -6.692 c 2.21 -3.135 3.317 -6.914 3.317 -11.334 c 0 -4.261 -1.167 -8.018 -3.498 -11.274 c -2.332 -3.255 -5.808 -5.688 -10.429 -7.294 c -0.244 -0.086 -0.5 -0.167 -0.759 -0.248 c -4.631 -1.443 -11.508 -2.164 -20.643 -2.164 h -3.763 h -14.685 v 40.996 z M 43.278 30.928 c -3.534 6.068 -8.315 10.791 -14.341 14.167 c -4.178 2.411 -10.203 4.621 -18.077 6.632 c 7.338 2.49 13.245 5.646 17.722 9.465 c 4.476 3.817 7.902 8.218 10.282 13.203 c 2.378 4.982 3.569 10.249 3.569 15.795 c 0 7.636 -2.249 14.65 -6.746 21.04 c -4.5 6.391 -10.924 11.293 -19.278 14.71 c -7.367 3.013 -17.175 4.696 -29.416 5.051 v 21.411 h -24.406 v -21.337 h -14.685 v 21.337 h -24.406 v -21.337 h -37.087 v -23.271 h 6.632 c 4.419 0 7.415 -0.403 8.982 -1.206 c 1.568 -0.804 2.671 -1.889 3.316 -3.255 c 0.642 -1.368 0.965 -4.543 0.965 -9.526 V 0 c 0 -4.904 -0.323 -8.06 -0.965 -9.466 c -0.645 -1.406 -1.748 -2.492 -3.316 -3.255 c -1.567 -0.764 -4.563 -1.145 -8.982 -1.145 h -6.632 v -23.271 h 37.087 v -21.338 h 24.406 v 21.338 h 14.685 v -21.338 h 24.406 v 21.662 c 12.916 0.702 23.159 2.56 30.707 5.584 c 9.832 3.938 17.438 9.665 22.815 17.182 c 5.377 7.515 8.066 15.734 8.066 24.657 c 0 7.476 -1.768 14.247 -5.303 20.318" stroke-linecap="round" />
</g>
	<g transform="matrix(0.8824336526153292 0 0 -0.8824336526153294 28.470108250175656 52.10370588425545)"  >
<path style="stroke: none; stroke-width: 1; stroke-dasharray: none; stroke-linecap: butt; stroke-dashoffset: 0; stroke-linejoin: miter; stroke-miterlimit: 4; fill: rgb(105,189,69); fill-rule: nonzero; opacity: 1;"  paint-order="stroke"  transform=" translate(120.489, 55.56881922384467)" d="m 0 0 c -0.659 3.661 -1.536 7.089 -2.659 10.249 c -2.621 7.376 -6.358 13.292 -11.21 17.743 c -4.85 4.452 -10.542 7.432 -17.076 8.944 c -8.848 2.048 -17.334 1.348 -25.456 -2.1 c -8.124 -3.447 -16.146 -8.865 -24.069 -16.24 c -3.654 -3.407 -7.347 -7.188 -11.074 -11.308 c 7.454 -3.746 13.899 -8.95 18.713 -16.626 c 0.139 -0.189 0.272 -0.389 0.396 -0.61 c 0.117 -0.192 0.216 -0.384 0.305 -0.574 c 9.823 -18.181 6.337 -40.624 -7.89 -55.519 c -12.656 -13.251 -30.394 -17.548 -47.994 -19.063 v -16.858 c 0 -2.804 -2.377 -5.175 -5.174 -5.175 h -24.407 c -2.804 0 -5.175 2.378 -5.175 5.175 v 16.163 h -4.335 v -16.163 c 0 -2.804 -2.377 -5.175 -5.175 -5.175 h -24.407 c -0.073 0 -0.145 0.009 -0.218 0.012 c -1.97 -1.098 -3.947 -2.143 -5.932 -3.12 c -12.155 -5.985 -24.871 -9.704 -38.141 -11.205 c 15.607 -10.729 33.686 -18.929 53.848 -23.932 c 85.133 -18.273 162.495 30.184 183.382 114.403 l -0.037 0.01 C -1.53 -20.497 -0.293 -10.146 0 0" stroke-linecap="round" />
</g>
	<g transform="matrix(0.8824336526153292 0 0 -0.8824336526153294 -38.09168567986825 -61.37754110470567)"  >
<path style="stroke: none; stroke-width: 1; stroke-dasharray: none; stroke-linecap: butt; stroke-dashoffset: 0; stroke-linejoin: miter; stroke-miterlimit: 4; fill: rgb(105,189,69); fill-rule: nonzero; opacity: 1;"  paint-order="stroke"  transform=" translate(-91.29849999999998, -72.3595972448541)" d="m 0 0 c 4.757 -4.877 10.608 -8.113 17.563 -9.722 c 7.584 -1.755 14.84 -1.329 21.771 1.287 c 6.931 2.613 13.936 6.987 21.018 13.119 c 2.568 2.225 5.173 4.669 7.812 7.317 v 10.748 v 24.395 c 0 2.856 0.639 6.519 -0.322 9.079 c -1.425 3.798 -10.719 2.237 -14.398 2.237 c -2.804 0 -5.175 2.377 -5.175 5.175 v 23.271 c 0 2.803 2.377 5.175 5.175 5.175 h 31.912 v 16.162 c 0 2.804 2.377 5.174 5.175 5.174 h 24.407 c 2.803 0 5.174 -2.377 5.174 -5.174 V 92.081 h 4.335 v 16.162 c 0 2.804 2.378 5.174 5.175 5.174 h 22.958 c 8.679 7.882 17.674 14.609 26.987 20.168 c 5.629 3.357 11.443 6.171 17.427 8.51 c -8.827 3.901 -18.182 7.121 -28.04 9.567 C 84.207 169.866 6.686 121.905 -14.397 37.574 C -13.925 30.49 -12.75 24.127 -10.868 18.496 C -8.377 11.037 -4.752 4.872 0 0" stroke-linecap="round" />
</g>
	<g transform="matrix(0.8824336526153292 0 0 -0.8824336526153294 -89.06464626202208 52.06477359640775)"  >
<path style="stroke: none; stroke-width: 1; stroke-dasharray: none; stroke-linecap: butt; stroke-dashoffset: 0; stroke-linejoin: miter; stroke-miterlimit: 4; fill: rgb(105,189,69); fill-rule: nonzero; opacity: 1;"  paint-order="stroke"  transform=" translate(51.82147147560823, -38.424499999999995)" d="m 0 0 v 8.15 h -31.912 c -2.804 0 -5.175 2.377 -5.175 5.175 v 23.271 c 0 2.803 2.378 5.175 5.175 5.175 c 2.21 0 4.422 -0.024 6.632 0 c 1.762 0.018 5.375 -0.454 6.952 0.692 c 1.075 0.78 0.955 2.45 1.029 3.678 c 0.17 2.837 0.107 5.7 0.107 8.542 v 28.65 c -1.25 -1.156 -2.496 -2.285 -3.732 -3.356 c -8.066 -6.984 -16.041 -11.966 -23.936 -14.939 c -7.895 -2.978 -16.159 -3.468 -24.797 -1.469 c -7.92 1.832 -14.585 5.517 -20.002 11.076 c -5.413 5.545 -9.54 12.568 -12.379 21.064 c -0.572 1.708 -1.081 3.481 -1.538 5.308 c -1.451 -50.613 20.756 -96.14 59.799 -125.185 c 5.274 1.838 10.466 4.007 15.572 6.522 C -18.66 -12.947 -9.259 -7.061 0 0" stroke-linecap="round" />
</g>
	<g transform="matrix(0.8824336526153292 0 0 -0.8824336526153294 75.35892632881314 -79.60791685204978)"  >
<path style="stroke: none; stroke-width: 1; stroke-dasharray: none; stroke-linecap: butt; stroke-dashoffset: 0; stroke-linejoin: miter; stroke-miterlimit: 4; fill: rgb(105,189,69); fill-rule: nonzero; opacity: 1;"  paint-order="stroke"  transform=" translate(-60.6605, 6.240499999999997)" d="m 0 0 v -7.534 c 22.11 -1.63 44.803 -9.224 53.12 -32.024 c 1.127 -3.09 1.822 -6.318 2.134 -9.587 c 4.978 3.43 9.99 6.223 15.035 8.363 c 9.558 4.058 19.545 4.884 29.961 2.474 c 7.687 -1.779 14.387 -5.286 20.095 -10.527 c 0.335 -0.307 0.651 -0.641 0.976 -0.96 C 109.927 -12.828 84.601 18.189 49.078 37.314 C 46.355 35.939 43.659 34.489 41.007 32.91 C 26.678 24.355 13.009 13.38 0 0" stroke-linecap="round" />
</g>
</g>
<g transform="matrix(1.965451055662188 0 0 1.965451055662188 642.2154510556622 748.9407448468445)" id="text-logo-path"  >
<path style="stroke: none; stroke-width: 0; stroke-dasharray: none; stroke-linecap: butt; stroke-dashoffset: 0; stroke-linejoin: miter; stroke-miterlimit: 4; fill: rgb(247,147,32); fill-rule: nonzero; opacity: 1;"  paint-order="stroke"  transform=" translate(-207.09500000000003, 19.369999999999997)" d="M 23.43 0 L 4.34 0 L 4.34 -38.77 L 21.15 -38.77 Q 25.24 -38.77 28.17 -37.99 Q 31.09 -37.21 32.74 -35.75 Q 34.4 -34.29 35.15 -32.41 Q 35.9 -30.53 35.9 -28.11 L 35.9 -28.11 Q 35.9 -26.72 35.47 -25.38 Q 35.04 -24.05 34.39 -23.11 Q 33.73 -22.18 33.2 -21.58 Q 32.67 -20.99 32.26 -20.68 L 32.26 -20.68 Q 35.07 -19.26 36.57 -16.84 Q 38.07 -14.42 38.07 -11.3 L 38.07 -11.3 Q 38.07 -8.85 37.25 -6.86 Q 36.43 -4.87 34.75 -3.3 Q 33.06 -1.73 30.18 -0.86 Q 27.3 0 23.43 0 L 23.43 0 Z M 13.69 -15.56 L 13.69 -8.04 L 22.35 -8.04 Q 28 -8.04 28 -11.8 L 28 -11.8 Q 28 -13.86 26.62 -14.71 Q 25.24 -15.56 22.35 -15.56 L 22.35 -15.56 L 13.69 -15.56 Z M 13.69 -30.78 L 13.69 -22.68 L 21.71 -22.68 Q 24.69 -22.68 25.86 -23.64 Q 27.02 -24.6 27.02 -26.91 L 27.02 -26.91 Q 27.02 -30.78 21.71 -30.78 L 21.71 -30.78 L 13.69 -30.78 Z M 53.97 0 L 44.61 0 L 44.61 -38.77 L 53.97 -38.77 L 53.97 0 Z M 74.06 -30.09 L 60.34 -30.09 L 60.34 -38.77 L 97.27 -38.77 L 97.27 -30.09 L 83.52 -30.09 L 83.52 0 L 74.06 0 L 74.06 -30.09 Z M 99.47 -19.68 L 99.47 -19.68 Q 99.47 -23.69 101.06 -27.3 Q 102.64 -30.92 105.4 -33.59 Q 108.16 -36.27 112.08 -37.85 Q 116 -39.44 120.46 -39.44 L 120.46 -39.44 Q 126.52 -39.44 131.27 -36.84 Q 136.02 -34.23 138.69 -29.75 L 138.69 -29.75 L 130.75 -25.13 Q 129.34 -27.86 126.69 -29.43 Q 124.05 -31 120.46 -31 L 120.46 -31 Q 115.42 -31 112.18 -27.76 Q 108.93 -24.52 108.93 -19.68 L 108.93 -19.68 Q 108.93 -16.62 110.38 -13.97 Q 111.83 -11.33 114.49 -9.71 Q 117.15 -8.1 120.46 -8.1 L 120.46 -8.1 Q 123.91 -8.1 126.54 -9.69 Q 129.17 -11.27 130.64 -13.97 L 130.64 -13.97 L 138.58 -9.41 Q 135.85 -4.84 131.12 -2.07 Q 126.39 0.7 120.46 0.7 L 120.46 0.7 Q 115.98 0.7 112.07 -0.89 Q 108.16 -2.48 105.4 -5.19 Q 102.64 -7.9 101.06 -11.66 Q 99.47 -15.42 99.47 -19.68 Z M 141.19 -19.37 L 141.19 -19.37 Q 141.19 -23.43 142.76 -27.14 Q 144.34 -30.84 147.01 -33.54 Q 149.68 -36.24 153.38 -37.84 Q 157.08 -39.44 161.18 -39.44 L 161.18 -39.44 Q 165.21 -39.44 168.93 -37.84 Q 172.64 -36.24 175.31 -33.54 Q 177.99 -30.84 179.59 -27.12 Q 181.19 -23.41 181.19 -19.37 L 181.19 -19.37 Q 181.19 -15.31 179.6 -11.59 Q 178.01 -7.88 175.33 -5.19 Q 172.64 -2.5 168.93 -0.9 Q 165.21 0.7 161.18 0.7 L 161.18 0.7 Q 155.72 0.7 151.11 -2 Q 146.51 -4.7 143.85 -9.31 Q 141.19 -13.92 141.19 -19.37 Z M 149.74 -19.37 L 149.74 -19.37 Q 149.74 -14.64 153.09 -11.31 Q 156.44 -7.99 161.18 -7.99 L 161.18 -7.99 Q 165.85 -7.99 169.19 -11.31 Q 172.53 -14.64 172.53 -19.37 L 172.53 -19.37 Q 172.53 -24.05 169.19 -27.39 Q 165.85 -30.73 161.18 -30.73 L 161.18 -30.73 Q 156.44 -30.73 153.09 -27.4 Q 149.74 -24.07 149.74 -19.37 Z M 196.69 0 L 187.34 0 L 187.34 -38.77 L 196.69 -38.77 L 196.69 0 Z M 214.17 0 L 204.76 0 L 204.76 -38.77 L 214.17 -38.77 L 233.79 -15.11 L 233.79 -38.77 L 243.2 -38.77 L 243.2 0 L 233.79 0 L 214.17 -23.71 L 214.17 0 Z M 273.64 0 L 264.24 0 L 264.24 -38.77 L 273.64 -38.77 L 293.27 -15.11 L 293.27 -38.77 L 302.67 -38.77 L 302.67 0 L 293.27 0 L 273.64 -23.71 L 273.64 0 Z M 340.5 0 L 310.8 0 L 310.8 -38.77 L 340.5 -38.77 L 340.5 -30.09 L 320.15 -30.09 L 320.15 -23.43 L 337.13 -23.43 L 337.13 -15.34 L 320.15 -15.34 L 320.15 -8.66 L 340.5 -8.66 L 340.5 0 Z M 358.78 0 L 345.9 -38.77 L 355.86 -38.77 L 363.9 -13.61 L 372.73 -38.77 L 382.94 -38.77 L 390.82 -13.75 L 399.81 -38.77 L 409.85 -38.77 L 395.3 0 L 385.72 0 L 377.6 -25.24 L 368.47 0 L 358.78 0 Z" stroke-linecap="round" />
</g>
<g transform="matrix(1.965451055662188 0 0 1.965451055662188 639.8776391554702 846.4062834264989)" id="tagline-599fb494-f904-498e-9003-54b24fdc481b-logo-path"  >
<path style="stroke: none; stroke-width: 0; stroke-dasharray: none; stroke-linecap: butt; stroke-dashoffset: 0; stroke-linejoin: miter; stroke-miterlimit: 4; fill: rgb(105,189,69); fill-rule: nonzero; opacity: 1;"  paint-order="stroke"  transform=" translate(-315.82, 5.7749999999999995)" d="M 4.71 -8.97 L 0.61 -8.97 L 0.61 -11.56 L 11.63 -11.56 L 11.63 -8.97 L 7.53 -8.97 L 7.53 0 L 4.71 0 L 4.71 -8.97 Z M 12.1 -5.78 L 12.1 -5.78 Q 12.1 -6.99 12.57 -8.09 Q 13.04 -9.2 13.84 -10 Q 14.63 -10.81 15.74 -11.28 Q 16.84 -11.76 18.06 -11.76 L 18.06 -11.76 Q 19.27 -11.76 20.37 -11.28 Q 21.48 -10.81 22.28 -10 Q 23.08 -9.2 23.55 -8.09 Q 24.03 -6.98 24.03 -5.78 L 24.03 -5.78 Q 24.03 -4.57 23.56 -3.46 Q 23.08 -2.35 22.28 -1.55 Q 21.48 -0.75 20.37 -0.27 Q 19.27 0.21 18.06 0.21 L 18.06 0.21 Q 16.44 0.21 15.06 -0.6 Q 13.69 -1.4 12.9 -2.78 Q 12.1 -4.15 12.1 -5.78 Z M 14.65 -5.78 L 14.65 -5.78 Q 14.65 -4.37 15.65 -3.37 Q 16.65 -2.38 18.06 -2.38 L 18.06 -2.38 Q 19.46 -2.38 20.45 -3.37 Q 21.45 -4.37 21.45 -5.78 L 21.45 -5.78 Q 21.45 -7.17 20.45 -8.17 Q 19.46 -9.16 18.06 -9.16 L 18.06 -9.16 Q 16.65 -9.16 15.65 -8.17 Q 14.65 -7.18 14.65 -5.78 Z M 32.68 0 L 29.89 0 L 29.89 -11.56 L 32.68 -11.56 L 32.68 0 Z M 38.05 0 L 35.26 0 L 35.26 -11.56 L 38.35 -11.56 L 42.38 -3.08 L 46.39 -11.56 L 49.51 -11.56 L 49.51 0 L 46.7 0 L 46.7 -5.9 L 43.93 0 L 40.81 0 L 38.05 -5.9 L 38.05 0 Z M 54.79 0 L 51.98 0 L 51.98 -11.56 L 57.32 -11.56 Q 58.39 -11.56 59.24 -11.19 Q 60.1 -10.81 60.62 -10.17 Q 61.15 -9.54 61.43 -8.75 Q 61.71 -7.97 61.71 -7.11 L 61.71 -7.11 Q 61.71 -6.42 61.54 -5.76 Q 61.37 -5.11 61.01 -4.54 Q 60.65 -3.97 60.13 -3.54 Q 59.62 -3.11 58.89 -2.86 Q 58.16 -2.61 57.3 -2.61 L 57.3 -2.61 L 54.79 -2.61 L 54.79 0 Z M 54.79 -8.97 L 54.79 -5.19 L 57 -5.19 Q 57.86 -5.19 58.38 -5.69 Q 58.89 -6.18 58.89 -7.11 L 58.89 -7.11 Q 58.89 -8.01 58.38 -8.48 Q 57.87 -8.96 57 -8.97 L 57 -8.97 L 54.79 -8.97 Z M 66.64 0 L 63.85 0 L 63.85 -11.56 L 69.44 -11.56 Q 71.2 -11.56 72.38 -10.33 Q 73.55 -9.1 73.55 -7.22 L 73.55 -7.22 Q 73.55 -5.98 73 -4.99 Q 72.44 -3.99 71.49 -3.49 L 71.49 -3.49 L 73.88 0 L 70.41 0 L 68.67 -2.87 L 66.64 -2.87 L 66.64 0 Z M 66.64 -8.97 L 66.64 -5.45 L 69.03 -5.45 Q 69.74 -5.45 70.25 -5.97 Q 70.75 -6.49 70.75 -7.22 L 70.75 -7.22 Q 70.75 -7.94 70.25 -8.45 Q 69.75 -8.97 69.05 -8.97 L 69.05 -8.97 L 66.64 -8.97 Z M 74.77 -5.78 L 74.77 -5.78 Q 74.77 -6.99 75.24 -8.09 Q 75.71 -9.2 76.51 -10 Q 77.31 -10.81 78.41 -11.28 Q 79.51 -11.76 80.73 -11.76 L 80.73 -11.76 Q 81.94 -11.76 83.05 -11.28 Q 84.15 -10.81 84.95 -10 Q 85.75 -9.2 86.22 -8.09 Q 86.7 -6.98 86.7 -5.78 L 86.7 -5.78 Q 86.7 -4.57 86.23 -3.46 Q 85.76 -2.35 84.95 -1.55 Q 84.15 -0.75 83.05 -0.27 Q 81.94 0.21 80.73 0.21 L 80.73 0.21 Q 79.11 0.21 77.73 -0.6 Q 76.36 -1.4 75.57 -2.78 Q 74.77 -4.15 74.77 -5.78 Z M 77.32 -5.78 L 77.32 -5.78 Q 77.32 -4.37 78.32 -3.37 Q 79.32 -2.38 80.73 -2.38 L 80.73 -2.38 Q 82.13 -2.38 83.12 -3.37 Q 84.12 -4.37 84.12 -5.78 L 84.12 -5.78 Q 84.12 -7.17 83.12 -8.17 Q 82.13 -9.16 80.73 -9.16 L 80.73 -9.16 Q 79.32 -9.16 78.32 -8.17 Q 77.32 -7.18 77.32 -5.78 Z M 92.94 0 L 87.82 -11.56 L 90.89 -11.56 L 94.48 -3.3 L 98.06 -11.56 L 101.13 -11.56 L 96 0 L 92.94 0 Z M 111.84 0 L 102.98 0 L 102.98 -11.56 L 111.84 -11.56 L 111.84 -8.97 L 105.77 -8.97 L 105.77 -6.99 L 110.83 -6.99 L 110.83 -4.57 L 105.77 -4.57 L 105.77 -2.58 L 111.84 -2.58 L 111.84 0 Z M 121.53 -8.97 L 117.44 -8.97 L 117.44 -11.56 L 128.45 -11.56 L 128.45 -8.97 L 124.35 -8.97 L 124.35 0 L 121.53 0 L 121.53 -8.97 Z M 133.14 0 L 130.36 0 L 130.36 -11.56 L 133.14 -11.56 L 133.14 -7.07 L 138.22 -7.07 L 138.22 -11.56 L 141.03 -11.56 L 141.03 0 L 138.22 0 L 138.22 -4.49 L 133.14 -4.49 L 133.14 0 Z M 152.47 0 L 143.61 0 L 143.61 -11.56 L 152.47 -11.56 L 152.47 -8.97 L 146.4 -8.97 L 146.4 -6.99 L 151.46 -6.99 L 151.46 -4.57 L 146.4 -4.57 L 146.4 -2.58 L 152.47 -2.58 L 152.47 0 Z M 161.95 0 L 158.1 -11.56 L 161.08 -11.56 L 163.48 -4.06 L 166.11 -11.56 L 169.15 -11.56 L 171.5 -4.1 L 174.18 -11.56 L 177.18 -11.56 L 172.84 0 L 169.98 0 L 167.56 -7.53 L 164.84 0 L 161.95 0 Z M 177.13 -5.78 L 177.13 -5.78 Q 177.13 -6.99 177.6 -8.09 Q 178.07 -9.2 178.87 -10 Q 179.66 -10.81 180.77 -11.28 Q 181.87 -11.76 183.09 -11.76 L 183.09 -11.76 Q 184.29 -11.76 185.4 -11.28 Q 186.51 -10.81 187.31 -10 Q 188.1 -9.2 188.58 -8.09 Q 189.06 -6.98 189.06 -5.78 L 189.06 -5.78 Q 189.06 -4.57 188.59 -3.46 Q 188.11 -2.35 187.31 -1.55 Q 186.51 -0.75 185.4 -0.27 Q 184.29 0.21 183.09 0.21 L 183.09 0.21 Q 181.46 0.21 180.09 -0.6 Q 178.72 -1.4 177.92 -2.78 Q 177.13 -4.15 177.13 -5.78 Z M 179.68 -5.78 L 179.68 -5.78 Q 179.68 -4.37 180.68 -3.37 Q 181.68 -2.38 183.09 -2.38 L 183.09 -2.38 Q 184.48 -2.38 185.48 -3.37 Q 186.48 -4.37 186.48 -5.78 L 186.48 -5.78 Q 186.48 -7.17 185.48 -8.17 Q 184.48 -9.16 183.09 -9.16 L 183.09 -9.16 Q 181.68 -9.16 180.68 -8.17 Q 179.68 -7.18 179.68 -5.78 Z M 193.68 0 L 190.89 0 L 190.89 -11.56 L 196.48 -11.56 Q 198.25 -11.56 199.42 -10.33 Q 200.6 -9.1 200.6 -7.22 L 200.6 -7.22 Q 200.6 -5.98 200.04 -4.99 Q 199.48 -3.99 198.54 -3.49 L 198.54 -3.49 L 200.92 0 L 197.45 0 L 195.72 -2.87 L 193.68 -2.87 L 193.68 0 Z M 193.68 -8.97 L 193.68 -5.45 L 196.07 -5.45 Q 196.79 -5.45 197.29 -5.97 Q 197.79 -6.49 197.79 -7.22 L 197.79 -7.22 Q 197.79 -7.94 197.29 -8.45 Q 196.79 -8.97 196.09 -8.97 L 196.09 -8.97 L 193.68 -8.97 Z M 211.76 0 L 202.9 0 L 202.9 -11.56 L 205.69 -11.56 L 205.69 -2.58 L 211.76 -2.58 L 211.76 0 Z M 218.86 0 L 213.75 0 L 213.75 -11.55 L 218.86 -11.56 Q 218.88 -11.56 218.91 -11.56 L 218.91 -11.56 Q 220.28 -11.57 221.42 -11.14 L 221.42 -11.14 Q 222.57 -10.71 223.34 -9.94 Q 224.11 -9.16 224.54 -8.1 Q 224.96 -7.04 224.96 -5.79 L 224.96 -5.79 Q 224.96 -4.13 224.19 -2.81 Q 223.42 -1.49 222.03 -0.74 Q 220.63 0 218.86 0 L 218.86 0 Z M 216.53 -8.97 L 216.53 -2.58 L 218.86 -2.58 Q 220.32 -2.58 221.23 -3.47 Q 222.14 -4.35 222.14 -5.79 L 222.14 -5.79 Q 222.14 -7.32 221.25 -8.15 Q 220.37 -8.97 218.86 -8.97 L 218.86 -8.97 L 216.53 -8.97 Z M 234.14 0 L 230.3 -11.56 L 233.27 -11.56 L 235.67 -4.06 L 238.3 -11.56 L 241.35 -11.56 L 243.69 -4.1 L 246.38 -11.56 L 249.37 -11.56 L 245.03 0 L 242.18 0 L 239.75 -7.53 L 237.03 0 L 234.14 0 Z M 254.08 0 L 251.29 0 L 251.29 -11.56 L 254.08 -11.56 L 254.08 0 Z M 260.07 -8.97 L 255.98 -8.97 L 255.98 -11.56 L 266.99 -11.56 L 266.99 -8.97 L 262.89 -8.97 L 262.89 0 L 260.07 0 L 260.07 -8.97 Z M 271.68 0 L 268.9 0 L 268.9 -11.56 L 271.68 -11.56 L 271.68 -7.07 L 276.76 -7.07 L 276.76 -11.56 L 279.57 -11.56 L 279.57 0 L 276.76 0 L 276.76 -4.49 L 271.68 -4.49 L 271.68 0 Z M 288.97 0 L 286.18 0 L 286.18 -11.56 L 288.97 -11.56 L 288.97 0 Z M 294.34 0 L 291.55 0 L 291.55 -11.56 L 294.64 -11.56 L 298.67 -3.08 L 302.68 -11.56 L 305.79 -11.56 L 305.79 0 L 302.99 0 L 302.99 -5.9 L 300.21 0 L 297.1 0 L 294.34 -5.9 L 294.34 0 Z M 311.15 0 L 308.36 0 L 308.36 -11.56 L 311.45 -11.56 L 315.48 -3.08 L 319.49 -11.56 L 322.6 -11.56 L 322.6 0 L 319.8 0 L 319.8 -5.9 L 317.02 0 L 313.91 0 L 311.15 -5.9 L 311.15 0 Z M 334.02 0 L 325.17 0 L 325.17 -11.56 L 334.02 -11.56 L 334.02 -8.97 L 327.96 -8.97 L 327.96 -6.99 L 333.02 -6.99 L 333.02 -4.57 L 327.96 -4.57 L 327.96 -2.58 L 334.02 -2.58 L 334.02 0 Z M 341.39 0 L 336.28 0 L 336.28 -11.55 L 341.39 -11.56 Q 341.42 -11.56 341.44 -11.56 L 341.44 -11.56 Q 342.81 -11.57 343.95 -11.14 L 343.95 -11.14 Q 345.1 -10.71 345.88 -9.94 Q 346.65 -9.16 347.07 -8.1 Q 347.5 -7.04 347.5 -5.79 L 347.5 -5.79 Q 347.5 -4.13 346.73 -2.81 Q 345.96 -1.49 344.57 -0.74 Q 343.17 0 341.39 0 L 341.39 0 Z M 339.07 -8.97 L 339.07 -2.58 L 341.39 -2.58 Q 342.86 -2.58 343.76 -3.47 Q 344.67 -4.35 344.67 -5.79 L 344.67 -5.79 Q 344.67 -7.32 343.79 -8.15 Q 342.91 -8.97 341.39 -8.97 L 341.39 -8.97 L 339.07 -8.97 Z M 352.24 0 L 349.45 0 L 349.45 -11.56 L 352.24 -11.56 L 352.24 0 Z M 357.1 0 L 354.14 0 L 359.09 -11.56 L 362.2 -11.56 L 367.16 0 L 364.19 0 L 363.44 -1.8 L 357.86 -1.8 L 357.1 0 Z M 360.67 -8.4 L 358.83 -4.08 L 362.47 -4.08 L 360.67 -8.4 Z M 370.26 -8.97 L 366.16 -8.97 L 366.16 -11.56 L 377.18 -11.56 L 377.18 -8.97 L 373.08 -8.97 L 373.08 0 L 370.26 0 L 370.26 -8.97 Z M 387.94 0 L 379.08 0 L 379.08 -11.56 L 387.94 -11.56 L 387.94 -8.97 L 381.87 -8.97 L 381.87 -6.99 L 386.93 -6.99 L 386.93 -4.57 L 381.87 -4.57 L 381.87 -2.58 L 387.94 -2.58 L 387.94 0 Z M 396.5 0 L 393.54 0 L 398.49 -11.56 L 401.59 -11.56 L 406.56 0 L 403.58 0 L 402.84 -1.8 L 397.26 -1.8 L 396.5 0 Z M 400.06 -8.4 L 398.23 -4.08 L 401.87 -4.08 L 400.06 -8.4 Z M 411.08 0 L 408.27 0 L 408.27 -11.56 L 411.08 -11.56 L 416.93 -4.51 L 416.93 -11.56 L 419.74 -11.56 L 419.74 0 L 416.93 0 L 411.08 -7.07 L 411.08 0 Z M 427.27 0 L 422.16 0 L 422.16 -11.55 L 427.27 -11.56 Q 427.3 -11.56 427.32 -11.56 L 427.32 -11.56 Q 428.69 -11.57 429.83 -11.14 L 429.83 -11.14 Q 430.98 -10.71 431.76 -9.94 Q 432.53 -9.16 432.95 -8.1 Q 433.38 -7.04 433.38 -5.79 L 433.38 -5.79 Q 433.38 -4.13 432.61 -2.81 Q 431.84 -1.49 430.45 -0.74 Q 429.05 0 427.27 0 L 427.27 0 Z M 424.95 -8.97 L 424.95 -2.58 L 427.27 -2.58 Q 428.74 -2.58 429.64 -3.47 Q 430.55 -4.35 430.55 -5.79 L 430.55 -5.79 Q 430.55 -7.32 429.67 -8.15 Q 428.79 -8.97 427.27 -8.97 L 427.27 -8.97 L 424.95 -8.97 Z M 442.15 0 L 439.36 0 L 439.36 -11.56 L 448.22 -11.56 L 448.22 -8.97 L 442.15 -8.97 L 442.15 -6.33 L 447.21 -6.33 L 447.21 -3.76 L 442.15 -3.76 L 442.15 0 Z M 453.18 0 L 450.39 0 L 450.39 -11.56 L 455.98 -11.56 Q 457.75 -11.56 458.92 -10.33 Q 460.1 -9.1 460.1 -7.22 L 460.1 -7.22 Q 460.1 -5.98 459.54 -4.99 Q 458.98 -3.99 458.04 -3.49 L 458.04 -3.49 L 460.42 0 L 456.95 0 L 455.21 -2.87 L 453.18 -2.87 L 453.18 0 Z M 453.18 -8.97 L 453.18 -5.45 L 455.57 -5.45 Q 456.29 -5.45 456.79 -5.97 Q 457.29 -6.49 457.29 -7.22 L 457.29 -7.22 Q 457.29 -7.94 456.79 -8.45 Q 456.29 -8.97 455.59 -8.97 L 455.59 -8.97 L 453.18 -8.97 Z M 471.26 0 L 462.4 0 L 462.4 -11.56 L 471.26 -11.56 L 471.26 -8.97 L 465.19 -8.97 L 465.19 -6.99 L 470.26 -6.99 L 470.26 -4.57 L 465.19 -4.57 L 465.19 -2.58 L 471.26 -2.58 L 471.26 0 Z M 482.38 0 L 473.52 0 L 473.52 -11.56 L 482.38 -11.56 L 482.38 -8.97 L 476.31 -8.97 L 476.31 -6.99 L 481.37 -6.99 L 481.37 -4.57 L 476.31 -4.57 L 476.31 -2.58 L 482.38 -2.58 L 482.38 0 Z M 492.07 -8.97 L 487.98 -8.97 L 487.98 -11.56 L 498.99 -11.56 L 498.99 -8.97 L 494.89 -8.97 L 494.89 0 L 492.07 0 L 492.07 -8.97 Z M 503.68 0 L 500.89 0 L 500.89 -11.56 L 506.48 -11.56 Q 508.25 -11.56 509.42 -10.33 Q 510.6 -9.1 510.6 -7.22 L 510.6 -7.22 Q 510.6 -5.98 510.04 -4.99 Q 509.49 -3.99 508.54 -3.49 L 508.54 -3.49 L 510.92 0 L 507.45 0 L 505.72 -2.87 L 503.68 -2.87 L 503.68 0 Z M 503.68 -8.97 L 503.68 -5.45 L 506.07 -5.45 Q 506.79 -5.45 507.29 -5.97 Q 507.79 -6.49 507.79 -7.22 L 507.79 -7.22 Q 507.79 -7.94 507.29 -8.45 Q 506.8 -8.97 506.09 -8.97 L 506.09 -8.97 L 503.68 -8.97 Z M 515.18 0 L 512.22 0 L 517.17 -11.56 L 520.28 -11.56 L 525.24 0 L 522.27 0 L 521.52 -1.8 L 515.94 -1.8 L 515.18 0 Z M 518.75 -8.4 L 516.91 -4.08 L 520.55 -4.08 L 518.75 -8.4 Z M 529.76 0 L 526.96 0 L 526.96 -11.56 L 529.76 -11.56 L 535.62 -4.51 L 535.62 -11.56 L 538.42 -11.56 L 538.42 0 L 535.62 0 L 529.76 -7.07 L 529.76 0 Z M 540.31 -4.04 L 540.31 -4.04 L 543.09 -4.04 Q 543.1 -3.97 543.12 -3.84 Q 543.15 -3.72 543.32 -3.4 Q 543.48 -3.09 543.72 -2.85 Q 543.97 -2.61 544.46 -2.41 Q 544.96 -2.21 545.6 -2.21 L 545.6 -2.21 Q 546.47 -2.21 546.88 -2.51 Q 547.3 -2.81 547.3 -3.23 L 547.3 -3.23 Q 547.3 -3.44 547.18 -3.62 Q 547.06 -3.79 546.9 -3.91 Q 546.74 -4.03 546.43 -4.14 Q 546.13 -4.25 545.89 -4.31 Q 545.66 -4.37 545.26 -4.47 L 545.26 -4.47 Q 543.61 -4.86 542.83 -5.19 L 542.83 -5.19 Q 540.49 -6.16 540.49 -8.09 L 540.49 -8.09 Q 540.49 -9.13 541.12 -9.97 Q 541.74 -10.82 542.82 -11.29 Q 543.89 -11.76 545.2 -11.76 L 545.2 -11.76 Q 546.27 -11.76 547.18 -11.41 Q 548.08 -11.06 548.64 -10.5 Q 549.2 -9.94 549.5 -9.27 Q 549.8 -8.59 549.8 -7.9 L 549.8 -7.9 L 547.03 -7.9 Q 547.03 -8.39 546.51 -8.83 Q 545.99 -9.26 545.16 -9.26 L 545.16 -9.26 Q 544.47 -9.26 543.89 -8.98 Q 543.31 -8.69 543.31 -8.23 L 543.31 -8.23 Q 543.31 -7.84 543.81 -7.61 Q 544.32 -7.38 545.7 -7.02 L 545.7 -7.02 Q 547.28 -6.62 547.98 -6.3 L 547.98 -6.3 Q 549.87 -5.45 550.07 -3.81 L 550.07 -3.81 Q 550.09 -3.6 550.09 -3.39 L 550.09 -3.39 Q 550.09 -1.75 548.8 -0.77 Q 547.51 0.21 545.45 0.21 L 545.45 0.21 Q 544.41 0.21 543.53 -0.06 Q 542.66 -0.33 542.07 -0.77 Q 541.49 -1.2 541.09 -1.77 Q 540.68 -2.33 540.5 -2.91 Q 540.31 -3.49 540.31 -4.04 Z M 553.64 0 L 550.68 0 L 555.63 -11.56 L 558.73 -11.56 L 563.7 0 L 560.73 0 L 559.98 -1.8 L 554.4 -1.8 L 553.64 0 Z M 557.21 -8.4 L 555.37 -4.08 L 559.01 -4.08 L 557.21 -8.4 Z M 563.92 -5.87 L 563.92 -5.87 Q 563.92 -7.06 564.4 -8.14 Q 564.87 -9.22 565.69 -10.02 Q 566.51 -10.82 567.68 -11.29 Q 568.85 -11.76 570.18 -11.76 L 570.18 -11.76 Q 571.99 -11.76 573.41 -10.99 Q 574.82 -10.21 575.62 -8.87 L 575.62 -8.87 L 573.25 -7.5 Q 572.83 -8.31 572.04 -8.78 Q 571.25 -9.25 570.18 -9.25 L 570.18 -9.25 Q 568.68 -9.25 567.71 -8.28 Q 566.74 -7.31 566.74 -5.87 L 566.74 -5.87 Q 566.74 -4.96 567.18 -4.17 Q 567.61 -3.38 568.4 -2.9 Q 569.19 -2.42 570.18 -2.42 L 570.18 -2.42 Q 571.21 -2.42 571.99 -2.89 Q 572.78 -3.36 573.22 -4.17 L 573.22 -4.17 L 575.58 -2.81 Q 574.77 -1.44 573.36 -0.62 Q 571.95 0.21 570.18 0.21 L 570.18 0.21 Q 568.84 0.21 567.68 -0.27 Q 566.51 -0.74 565.69 -1.55 Q 564.87 -2.36 564.4 -3.48 Q 563.92 -4.6 563.92 -5.87 Z M 580.86 -8.97 L 576.77 -8.97 L 576.77 -11.56 L 587.79 -11.56 L 587.79 -8.97 L 583.69 -8.97 L 583.69 0 L 580.86 0 L 580.86 -8.97 Z M 592.48 0 L 589.69 0 L 589.69 -11.56 L 592.48 -11.56 L 592.48 0 Z M 594.31 -5.78 L 594.31 -5.78 Q 594.31 -6.99 594.78 -8.09 Q 595.25 -9.2 596.05 -10 Q 596.84 -10.81 597.95 -11.28 Q 599.05 -11.76 600.27 -11.76 L 600.27 -11.76 Q 601.47 -11.76 602.58 -11.28 Q 603.69 -10.81 604.49 -10 Q 605.28 -9.2 605.76 -8.09 Q 606.24 -6.98 606.24 -5.78 L 606.24 -5.78 Q 606.24 -4.57 605.77 -3.46 Q 605.29 -2.35 604.49 -1.55 Q 603.69 -0.75 602.58 -0.27 Q 601.47 0.21 600.27 0.21 L 600.27 0.21 Q 598.64 0.21 597.27 -0.6 Q 595.9 -1.4 595.1 -2.78 Q 594.31 -4.15 594.31 -5.78 Z M 596.86 -5.78 L 596.86 -5.78 Q 596.86 -4.37 597.86 -3.37 Q 598.86 -2.38 600.27 -2.38 L 600.27 -2.38 Q 601.67 -2.38 602.66 -3.37 Q 603.66 -4.37 603.66 -5.78 L 603.66 -5.78 Q 603.66 -7.17 602.66 -8.17 Q 601.67 -9.16 600.27 -9.16 L 600.27 -9.16 Q 598.86 -9.16 597.86 -8.17 Q 596.86 -7.18 596.86 -5.78 Z M 610.71 0 L 607.9 0 L 607.9 -11.56 L 610.71 -11.56 L 616.56 -4.51 L 616.56 -11.56 L 619.36 -11.56 L 619.36 0 L 616.56 0 L 610.71 -7.07 L 610.71 0 Z M 621.26 -4.04 L 621.26 -4.04 L 624.03 -4.04 Q 624.04 -3.97 624.07 -3.84 Q 624.09 -3.72 624.26 -3.4 Q 624.42 -3.09 624.66 -2.85 Q 624.91 -2.61 625.41 -2.41 Q 625.9 -2.21 626.54 -2.21 L 626.54 -2.21 Q 627.41 -2.21 627.83 -2.51 Q 628.24 -2.81 628.24 -3.23 L 628.24 -3.23 Q 628.24 -3.44 628.12 -3.62 Q 628 -3.79 627.84 -3.91 Q 627.68 -4.03 627.37 -4.14 Q 627.07 -4.25 626.83 -4.31 Q 626.6 -4.37 626.2 -4.47 L 626.2 -4.47 Q 624.55 -4.86 623.77 -5.19 L 623.77 -5.19 Q 621.43 -6.16 621.43 -8.09 L 621.43 -8.09 Q 621.43 -9.13 622.06 -9.97 Q 622.68 -10.82 623.76 -11.29 Q 624.83 -11.76 626.14 -11.76 L 626.14 -11.76 Q 627.22 -11.76 628.12 -11.41 Q 629.02 -11.06 629.58 -10.5 Q 630.14 -9.94 630.44 -9.27 Q 630.74 -8.59 630.74 -7.9 L 630.74 -7.9 L 627.97 -7.9 Q 627.97 -8.39 627.45 -8.83 Q 626.93 -9.26 626.1 -9.26 L 626.1 -9.26 Q 625.41 -9.26 624.83 -8.98 Q 624.25 -8.69 624.25 -8.23 L 624.25 -8.23 Q 624.25 -7.84 624.75 -7.61 Q 625.26 -7.38 626.64 -7.02 L 626.64 -7.02 Q 628.22 -6.62 628.92 -6.3 L 628.92 -6.3 Q 630.81 -5.45 631.01 -3.81 L 631.01 -3.81 Q 631.03 -3.6 631.03 -3.39 L 631.03 -3.39 Q 631.03 -1.75 629.74 -0.77 Q 628.45 0.21 626.39 0.21 L 626.39 0.21 Q 625.35 0.21 624.47 -0.06 Q 623.6 -0.33 623.02 -0.77 Q 622.43 -1.2 622.03 -1.77 Q 621.62 -2.33 621.44 -2.91 Q 621.26 -3.49 621.26 -4.04 Z" stroke-linecap="round" />
</g>
</svg>